<svg width="64" height="64" viewBox="0 0 64 64" fill="none" xmlns="http://www.w3.org/2000/svg">
<path d="M11.92 56H52.08C56.1867 56 58.7467 51.5467 56.6933 48L36.6133 13.3067C34.56 9.76 29.44 9.76 27.3867 13.3067L7.30666 48C5.25333 51.5467 7.81333 56 11.92 56ZM32 37.3333C30.5333 37.3333 29.3333 36.1333 29.3333 34.6667V29.3333C29.3333 27.8667 30.5333 26.6667 32 26.6667C33.4667 26.6667 34.6667 27.8667 34.6667 29.3333V34.6667C34.6667 36.1333 33.4667 37.3333 32 37.3333ZM34.6667 48H29.3333V42.6667H34.6667V48Z" fill="#ECB328"/>
</svg>
